<?xml version="1.0" encoding="utf-8"?>
<!-- Generator: Adobe Illustrator 21.1.0, SVG Export Plug-In . SVG Version: 6.00 Build 0)  -->
<svg version="1.1" id="Layer_1" xmlns="http://www.w3.org/2000/svg" xmlns:xlink="http://www.w3.org/1999/xlink" x="0px" y="0px"
	 viewBox="0 0 2500 2500" style="enable-background:new 0 0 2500 2500;" xml:space="preserve">
<style type="text/css">
	.st0{fill:#2DC100;}
	.st1{fill:#FFFFFF;}
	.st2{fill:#FCEE2D;}
	.st3{fill:none;}
</style>
<path class="st0" d="M1730.1,962.3c-201.8,10.5-377.2,71.7-519.7,209.9c-143.9,139.6-209.6,310.7-191.7,522.8
	c-78.9-9.8-150.7-20.5-222.9-26.6c-25-2.1-54.6,0.9-75.7,12.8c-70.1,39.6-137.4,84.3-217.1,134.1c14.6-66.2,24.1-124.1,40.9-179.8
	c12.3-41,6.6-63.7-31.1-90.4c-242.2-171-344.3-426.9-267.9-690.4C315.5,611,489.1,463.1,725,386.1c322-105.2,683.8,2.1,879.6,257.7
	C1675.2,736.1,1718.6,839.8,1730.1,962.3L1730.1,962.3z M801.4,880.2c1.9-48.2-39.9-91.6-89.5-93.1c-50.8-1.5-92.6,37.3-94,87.4
	c-1.5,50.7,37.3,91.4,88.4,92.7C757,968.5,799.5,929.6,801.4,880.2L801.4,880.2z M1285.9,787.1c-49.8,0.9-91.9,43.3-91,91.7
	c0.9,50.1,42.2,89.4,93.4,88.8c51.3-0.6,90.2-40.3,89.8-91.5C1377.7,825.9,1336.6,786.2,1285.9,787.1z"/>
<path class="st1" d="M2259,2302.9L2259,2302.9L2259,2302.9z"/>
<g>
	<g>
		<path class="st2" d="M1973.3,1306.2h-506.5c-20.5,0-37.3,14.2-37.3,31.7v198.4c0,17.5,16.7,31.7,37.3,31.7h506.5
			c20.5,0,37.3-14.2,37.3-31.7v-198.4C2010.6,1320.4,1993.9,1306.2,1973.3,1306.2z M1626.2,1512h-74.5v-149.8h74.5V1512z
			 M1899.7,1512h-74.5v-149.8h74.5V1512z"/>
		<rect x="1825.2" y="1362.2" class="st3" width="74.5" height="149.8"/>
		<rect x="1551.7" y="1362.2" class="st3" width="74.5" height="149.8"/>
	</g>
	<g>
		<path class="st2" d="M2249.3,1270.1c-201.8-260.1-621.5-322.6-907.6-135.2c-322,210.9-361.8,605.6-83.4,863.1
			c146.3,135.3,323.8,190.5,521.9,170.3c65-6.6,130.4-42.5,192.5-36c62.4,6.5,121,49.2,184.9,77.6c-4.3-17-5.1-34-12.5-47.4
			c-39.9-72.8-17.5-118.2,44.7-173.4C2404.7,1798.5,2425.4,1497.1,2249.3,1270.1z M1347.4,1340.9L1347.4,1340.9
			c0-52.5,50.2-95.2,111.8-95.2h506.5c61.6,0,111.8,42.7,111.8,95.2v198.4c0,52.5-50.2,95.2-111.8,95.2h-506.5
			c-61.6,0-111.8-42.7-111.8-95.2L1347.4,1340.9L1347.4,1340.9z M1313.5,1512H1239v-143.8h74.5V1512z M2030.7,1909.8
			c0-101.6-97-184.3-216.3-184.3h-188.7c-119.3,0-216.3,82.7-216.3,184.3h-74.5c0-136.6,130.5-247.7,290.8-247.7h188.7
			c160.3,0,290.8,111.1,290.8,247.7H2030.7z M2201.2,1512h-74.5v-143.8h74.5V1512z"/>
	</g>
</g>
</svg>
